<svg xmlns="http://www.w3.org/2000/svg" x="0px" y="0px" viewBox="0 0 28 18" aria-label="small picture of an envelope signifying email" role="img" data-reactid=".1.4.0"><title data-reactid=".1.4.0.0">Envelope Icon</title><desc data-reactid=".1.4.0.1">small picture of an envelope signifying email</desc><path fill="#ffffff" d="M28,3.2C28,1.5,26.5,0,24.8,0H3.2C1.5,0,0,1.5,0,3.2v11.5C0,16.5,1.5,18,3.2,18h21.5c1.8,0,3.2-1.5,3.2-3.2 V3.2z M24.7,14.8c-0.2,0.1-0.4,0.2-0.6,0.2c-0.2,0-0.4-0.1-0.6-0.3l-5-5.3l-3.6,3c-0.3,0.2-0.6,0.3-0.9,0.3s-0.7-0.1-0.9-0.4l-3.6-3 l-5,5.3c-0.2,0.2-0.4,0.3-0.6,0.3c-0.2,0-0.4-0.1-0.6-0.2c-0.3-0.3-0.4-0.8,0-1.2l4.9-5.3L3.3,4.5C3,4.2,2.9,3.6,3.2,3.3 C3.5,2.9,4,2.9,4.4,3.2l9.6,7.9l9.6-7.9c0.4-0.3,0.9-0.2,1.2,0.1c0.3,0.4,0.2,0.9-0.1,1.2l-4.8,3.9l4.9,5.3 C25.1,14,25,14.5,24.7,14.8z" data-reactid=".1.4.0.2"/></svg>